<svg width="107" height="107" viewBox="0 0 107 107" fill="none" xmlns="http://www.w3.org/2000/svg">
<rect width="107" height="107" rx="53.5" fill="#9C76E2"/>
<mask id="mask0_867_13120" style="mask-type:alpha" maskUnits="userSpaceOnUse" x="0" y="0" width="107" height="107">
<rect width="107" height="107" rx="53.5" fill="white"/>
</mask>
<g mask="url(#mask0_867_13120)">
<path fill-rule="evenodd" clip-rule="evenodd" d="M54.1767 37.586L52.668 30.1503L53.9672 29.8867L55.4758 37.3224L54.1767 37.586Z" fill="white"/>
<path fill-rule="evenodd" clip-rule="evenodd" d="M61.4951 36.659L55.7267 29.4499L56.7618 28.6217L62.5302 35.8308L61.4951 36.659Z" fill="white"/>
<path d="M71.9972 98.9468C77.868 111.635 81.581 123.736 87.118 131.3L80.2002 121.109L17.0419 124.612C14.0964 124.9 8.4665 134.791 17.0419 112.068C21.9133 99.1609 20.6709 68.2117 22.2422 59.1878C23.2278 53.5281 24.4949 50.9094 26.5253 47.9551C25.1603 46.626 22.5269 39.9019 27.8487 37.1143C33.1706 34.3267 38.6225 38.6651 39.7001 41.8262C44.4058 40.4971 57.964 35.6856 69.3785 34.4672C80.7931 33.2488 85.513 40.1812 87.118 49.5296C87.2205 50.1264 87.2924 50.7151 87.3362 51.2951C87.618 55.0248 86.7311 58.7484 85.7946 62.3696C85.3722 64.0028 83.542 66.2273 79.4873 68.5925C64.0364 77.6055 62.2828 76.5049 66.9851 87.6554L71.9972 98.9468Z" fill="white"/>
<path d="M30.122 40.5285C32.4256 38.9804 34.1235 41.4761 34.4332 42.4052L33.1414 43.0775C32.0219 43.5791 30.9998 44.2742 30.122 45.1311C29.3613 43.9675 28.0414 41.9268 30.122 40.5285Z" fill="#9C76E2"/>
<path d="M66.248 16.3454C66.256 16.0672 66.2586 15.7921 66.2542 15.5186C67.4685 14.6669 68.1106 13.2906 68.7301 11.8827C67.7727 12.5021 67.074 13.0971 65.8629 13.1972C67.1251 11.9953 67.6124 11.4674 68.1106 9.99609C66.9136 10.6758 66.1261 10.932 64.7348 11.1579C63.6626 9.86395 62.1038 9.01451 60.3557 8.93412C57.2417 8.79092 55.2706 10.6719 54.8764 13.1972C54.8618 13.7028 54.7075 14.6703 55.5522 16.3454C49.2448 18.9221 44.8988 13.2905 47.2175 9.34845C45.7701 10.4667 45.3571 10.2703 44.4017 11.77C42.8589 14.1916 43.754 16.754 44.9367 18.0286C43.9392 17.9546 40.2906 15.2652 38.7982 15.5714C38.7982 15.5714 39.6148 15.6146 40.1498 18.0286C40.6848 20.4426 42.6956 23.0365 45.4604 23.7325C44.9461 23.863 44.4059 23.9229 43.8526 23.9042C42.6277 23.9042 41.8524 23.9342 40.4032 23.005C42.3461 25.9662 45.604 28.2996 48.2626 28.4393C47.4427 29.0308 46.598 29.2279 45.0775 29.1435C44.6781 29.1213 42.4025 28.9182 40.8819 27.454C42.0364 30.5232 45.4604 32.6309 49.4701 32.7477C60.6546 33.0734 66.0039 24.7949 66.248 16.3454Z" fill="white"/>
</g>
<path d="M53.9217 48.685C57.6093 47.7497 59.3287 46.2257 60.0679 44.9278C60.2126 44.6738 59.8739 44.4474 59.6364 44.6178C58.2435 45.6175 55.7978 46.8473 53.9217 47.4461C51.9555 48.0736 49.5589 48.1793 47.7719 48.2335C47.2068 48.2507 47.0944 48.7578 47.6443 48.889C49.0739 49.23 51.3139 49.3464 53.9217 48.685Z" fill="#9C76E2"/>
<path d="M84.4733 43.6449C84.4733 44.3602 83.8934 44.9401 83.1781 44.9401C82.4627 44.9401 81.8828 44.3602 81.8828 43.6449C81.8828 42.9295 82.4627 42.3496 83.1781 42.3496C83.8934 42.3496 84.4733 42.9295 84.4733 43.6449Z" fill="#9C76E2"/>
</svg>
